<?xml version="1.0" standalone="no"?>
<!DOCTYPE svg PUBLIC "-//W3C//DTD SVG 20010904//EN"
 "http://www.w3.org/TR/2001/REC-SVG-20010904/DTD/svg10.dtd">
<svg version="1.0" xmlns="http://www.w3.org/2000/svg"
 width="200.000000pt" height="200.000000pt" viewBox="0 0 200.000000 200.000000"
 preserveAspectRatio="xMidYMid meet">
<metadata>
Created by potrace 1.11, written by Peter Selinger 2001-2013
</metadata>
<g transform="translate(0.000000,200.000000) scale(0.100000,-0.100000)"
fill="#000000" stroke="none">
<path d="M907 1984 c-2 -2 -26 -6 -53 -8 -27 -3 -82 -14 -123 -26 -428 -121
-726 -524 -715 -965 3 -102 10 -178 20 -205 3 -8 8 -26 10 -39 9 -46 64 -178
99 -235 19 -32 35 -62 35 -66 0 -5 3 -10 8 -12 4 -2 18 -16 30 -33 130 -170
352 -314 552 -360 112 -25 314 -30 410 -10 14 2 34 7 45 9 33 7 147 47 193 68
43 19 142 76 152 88 3 3 22 18 43 33 128 96 248 261 312 430 23 61 31 91 50
182 4 17 8 80 9 141 7 267 -83 504 -266 699 -181 194 -424 303 -690 309 -65 2
-119 2 -121 0z m297 -36 c348 -76 635 -345 726 -680 29 -110 31 -124 35 -243
16 -475 -307 -879 -785 -982 -47 -10 -304 -10 -359 0 -23 5 -55 13 -70 18 -14
6 -26 9 -26 8 0 -6 -88 27 -147 56 -261 128 -443 354 -520 643 -29 111 -33
309 -8 422 90 412 386 693 815 773 61 11 256 3 339 -15z"/>
<path d="M818 1900 c-48 -10 -92 -21 -97 -25 -6 -3 -19 -8 -30 -10 -34 -6
-164 -75 -225 -119 -34 -24 -87 -70 -119 -103 -58 -58 -147 -178 -147 -197 0
-5 31 -80 69 -165 38 -86 148 -336 245 -556 178 -403 255 -565 284 -598 15
-17 16 -17 24 3 8 22 12 268 4 310 -2 14 -7 59 -10 100 -4 41 -8 93 -11 115
-2 22 -7 76 -10 119 -4 44 -9 89 -11 100 -10 52 -18 227 -18 401 0 215 15 310
64 410 56 117 134 168 255 168 85 -1 283 -50 390 -98 17 -8 44 -19 60 -24 l30
-11 -30 25 c-66 55 -260 140 -365 160 -84 15 -265 13 -352 -5z"/>
<path d="M964 1758 c-59 -40 -97 -109 -121 -218 -21 -98 -24 -522 -4 -535 4
-2 33 3 66 11 33 8 69 16 81 18 37 7 240 65 315 90 445 146 580 303 387 449
-146 111 -444 217 -607 217 -61 0 -74 -4 -117 -32z"/>
<path d="M1814 1355 c-15 -62 -184 -173 -369 -244 -119 -45 -396 -128 -486
-145 -38 -7 -83 -18 -92 -23 -4 -3 18 -41 49 -85 74 -106 85 -119 186 -221
143 -144 321 -245 487 -278 72 -14 57 -24 148 96 185 244 230 585 116 883 -18
48 -30 53 -39 17z"/>
<path d="M147 1339 c-17 -42 -42 -127 -53 -184 -11 -60 -13 -214 -3 -276 5
-29 11 -69 14 -87 8 -50 64 -189 103 -257 85 -145 209 -265 362 -348 62 -34
150 -69 150 -61 0 3 -13 30 -29 62 -16 31 -124 273 -241 537 -117 264 -225
507 -239 540 -15 33 -32 71 -38 85 l-10 25 -16 -36z"/>
<path d="M855 774 c3 -38 7 -85 10 -104 13 -101 20 -234 20 -398 0 -100 2
-183 5 -183 108 -28 318 2 471 66 74 31 219 120 219 135 0 4 -28 14 -62 24
-83 22 -248 105 -323 161 -87 65 -218 197 -286 289 l-60 80 6 -70z"/>
</g>
</svg>
